<svg width="150" height="253" viewBox="0 0 150 253" fill="none" xmlns="http://www.w3.org/2000/svg">
<rect width="150" height="250" fill="#333333"/>
<g filter="url(#filter0_d_102_19)">
<path d="M26 36C26 39.3137 23.3137 42 20 42C16 39.5 14 39.3137 14 36C14 30.5 17.1863 29.5 20.5 29.5C23.5 28.5001 24.5 34 26 36Z" fill="#D2B08E"/>
</g>
<g filter="url(#filter1_d_102_19)">
<path d="M87 118.62C87 121.934 84.3137 124.62 81 124.62C77 122.12 75 121.934 75 118.62C75 113.12 78.1863 112.12 81.5 112.12C84.5 111.12 85.5 116.62 87 118.62Z" fill="#D2B08E"/>
</g>
<g filter="url(#filter2_d_102_19)">
<path d="M124 213.62C124 216.934 121.314 219.62 118 219.62C114 217.12 112 216.934 112 213.62C112 208.12 115.186 207.12 118.5 207.12C121.5 206.12 122.5 211.62 124 213.62Z" fill="#D2B08E"/>
</g>
<g filter="url(#filter3_d_102_19)">
<path d="M38 213.62C38 216.934 35.3137 219.62 32 219.62C28 217.12 26 216.934 26 213.62C26 208.12 29.1863 207.12 32.5 207.12C35.5 206.12 36.5 211.62 38 213.62Z" fill="#D2B08E"/>
</g>
<g filter="url(#filter4_d_102_19)">
<path d="M112 65.6204C112 68.9341 109.314 71.6204 106 71.6204C102 69.1204 100 68.9341 100 65.6204C100 60.1204 103.186 59.1204 106.5 59.1204C109.5 58.1205 110.5 63.6204 112 65.6204Z" fill="#D2B08E"/>
</g>
<g filter="url(#filter5_d_102_19)">
<path d="M141 105.62C141 108.934 138.314 111.62 135 111.62C131 109.12 129 108.934 129 105.62C129 100.12 132.186 99.1204 135.5 99.1204C138.5 98.1205 139.5 103.62 141 105.62Z" fill="#D2B08E"/>
</g>
<g filter="url(#filter6_d_102_19)">
<path d="M55 84.6204C55 87.9341 52.3137 90.6204 49 90.6204C45 88.1204 43 87.9341 43 84.6204C43 79.1204 46.1863 78.1204 49.5 78.1204C52.5 77.1205 53.5 82.6204 55 84.6204Z" fill="#D2B08E"/>
</g>
<g filter="url(#filter7_d_102_19)">
<path d="M26 118.62C26 121.934 23.3137 124.62 20 124.62C16 122.12 14 121.934 14 118.62C14 113.12 17.1863 112.12 20.5 112.12C23.5 111.12 24.5 116.62 26 118.62Z" fill="#D2B08E"/>
</g>
<g filter="url(#filter8_d_102_19)">
<path d="M32 167.62C32 170.934 29.3137 173.62 26 173.62C22 171.12 20 170.934 20 167.62C20 162.12 23.1863 161.12 26.5 161.12C29.5 160.12 30.5 165.62 32 167.62Z" fill="#D2B08E"/>
</g>
<g filter="url(#filter9_d_102_19)">
<path d="M75 195.62C75 198.934 72.3137 201.62 69 201.62C65 199.12 63 198.934 63 195.62C63 190.12 66.1863 189.12 69.5 189.12C72.5 188.12 73.5 193.62 75 195.62Z" fill="#D2B08E"/>
</g>
<g filter="url(#filter10_d_102_19)">
<path d="M83 238.62C83 241.934 80.3137 244.62 77 244.62C73 242.12 71 241.934 71 238.62C71 233.12 74.1863 232.12 77.5 232.12C80.5 231.12 81.5 236.62 83 238.62Z" fill="#D2B08E"/>
</g>
<g filter="url(#filter11_d_102_19)">
<path d="M118 153.62C118 156.934 115.314 159.62 112 159.62C108 157.12 106 156.934 106 153.62C106 148.12 109.186 147.12 112.5 147.12C115.5 146.12 116.5 151.62 118 153.62Z" fill="#D2B08E"/>
</g>
<g filter="url(#filter12_d_102_19)">
<path d="M81 29.6204C81 32.9341 78.3137 35.6204 75 35.6204C71 33.1204 69 32.9341 69 29.6204C69 24.1204 72.1863 23.1204 75.5 23.1204C78.5 22.1205 79.5 27.6204 81 29.6204Z" fill="#D2B08E"/>
</g>
<g filter="url(#filter13_d_102_19)">
<path d="M135 29.6204C135 32.9341 132.314 35.6204 129 35.6204C125 33.1204 123 32.9341 123 29.6204C123 24.1204 126.186 23.1204 129.5 23.1204C132.5 22.1205 133.5 27.6204 135 29.6204Z" fill="#D2B08E"/>
</g>
<defs>
<filter id="filter0_d_102_19" x="10" y="29.3796" width="20" height="20.6204" filterUnits="userSpaceOnUse" color-interpolation-filters="sRGB">
<feFlood flood-opacity="0" result="BackgroundImageFix"/>
<feColorMatrix in="SourceAlpha" type="matrix" values="0 0 0 0 0 0 0 0 0 0 0 0 0 0 0 0 0 0 127 0" result="hardAlpha"/>
<feOffset dy="4"/>
<feGaussianBlur stdDeviation="2"/>
<feComposite in2="hardAlpha" operator="out"/>
<feColorMatrix type="matrix" values="0 0 0 0 0 0 0 0 0 0 0 0 0 0 0 0 0 0 0.25 0"/>
<feBlend mode="normal" in2="BackgroundImageFix" result="effect1_dropShadow_102_19"/>
<feBlend mode="normal" in="SourceGraphic" in2="effect1_dropShadow_102_19" result="shape"/>
</filter>
<filter id="filter1_d_102_19" x="71" y="112" width="20" height="20.6204" filterUnits="userSpaceOnUse" color-interpolation-filters="sRGB">
<feFlood flood-opacity="0" result="BackgroundImageFix"/>
<feColorMatrix in="SourceAlpha" type="matrix" values="0 0 0 0 0 0 0 0 0 0 0 0 0 0 0 0 0 0 127 0" result="hardAlpha"/>
<feOffset dy="4"/>
<feGaussianBlur stdDeviation="2"/>
<feComposite in2="hardAlpha" operator="out"/>
<feColorMatrix type="matrix" values="0 0 0 0 0 0 0 0 0 0 0 0 0 0 0 0 0 0 0.25 0"/>
<feBlend mode="normal" in2="BackgroundImageFix" result="effect1_dropShadow_102_19"/>
<feBlend mode="normal" in="SourceGraphic" in2="effect1_dropShadow_102_19" result="shape"/>
</filter>
<filter id="filter2_d_102_19" x="108" y="207" width="20" height="20.6204" filterUnits="userSpaceOnUse" color-interpolation-filters="sRGB">
<feFlood flood-opacity="0" result="BackgroundImageFix"/>
<feColorMatrix in="SourceAlpha" type="matrix" values="0 0 0 0 0 0 0 0 0 0 0 0 0 0 0 0 0 0 127 0" result="hardAlpha"/>
<feOffset dy="4"/>
<feGaussianBlur stdDeviation="2"/>
<feComposite in2="hardAlpha" operator="out"/>
<feColorMatrix type="matrix" values="0 0 0 0 0 0 0 0 0 0 0 0 0 0 0 0 0 0 0.25 0"/>
<feBlend mode="normal" in2="BackgroundImageFix" result="effect1_dropShadow_102_19"/>
<feBlend mode="normal" in="SourceGraphic" in2="effect1_dropShadow_102_19" result="shape"/>
</filter>
<filter id="filter3_d_102_19" x="22" y="207" width="20" height="20.6204" filterUnits="userSpaceOnUse" color-interpolation-filters="sRGB">
<feFlood flood-opacity="0" result="BackgroundImageFix"/>
<feColorMatrix in="SourceAlpha" type="matrix" values="0 0 0 0 0 0 0 0 0 0 0 0 0 0 0 0 0 0 127 0" result="hardAlpha"/>
<feOffset dy="4"/>
<feGaussianBlur stdDeviation="2"/>
<feComposite in2="hardAlpha" operator="out"/>
<feColorMatrix type="matrix" values="0 0 0 0 0 0 0 0 0 0 0 0 0 0 0 0 0 0 0.25 0"/>
<feBlend mode="normal" in2="BackgroundImageFix" result="effect1_dropShadow_102_19"/>
<feBlend mode="normal" in="SourceGraphic" in2="effect1_dropShadow_102_19" result="shape"/>
</filter>
<filter id="filter4_d_102_19" x="96" y="59" width="20" height="20.6204" filterUnits="userSpaceOnUse" color-interpolation-filters="sRGB">
<feFlood flood-opacity="0" result="BackgroundImageFix"/>
<feColorMatrix in="SourceAlpha" type="matrix" values="0 0 0 0 0 0 0 0 0 0 0 0 0 0 0 0 0 0 127 0" result="hardAlpha"/>
<feOffset dy="4"/>
<feGaussianBlur stdDeviation="2"/>
<feComposite in2="hardAlpha" operator="out"/>
<feColorMatrix type="matrix" values="0 0 0 0 0 0 0 0 0 0 0 0 0 0 0 0 0 0 0.25 0"/>
<feBlend mode="normal" in2="BackgroundImageFix" result="effect1_dropShadow_102_19"/>
<feBlend mode="normal" in="SourceGraphic" in2="effect1_dropShadow_102_19" result="shape"/>
</filter>
<filter id="filter5_d_102_19" x="125" y="99" width="20" height="20.6204" filterUnits="userSpaceOnUse" color-interpolation-filters="sRGB">
<feFlood flood-opacity="0" result="BackgroundImageFix"/>
<feColorMatrix in="SourceAlpha" type="matrix" values="0 0 0 0 0 0 0 0 0 0 0 0 0 0 0 0 0 0 127 0" result="hardAlpha"/>
<feOffset dy="4"/>
<feGaussianBlur stdDeviation="2"/>
<feComposite in2="hardAlpha" operator="out"/>
<feColorMatrix type="matrix" values="0 0 0 0 0 0 0 0 0 0 0 0 0 0 0 0 0 0 0.25 0"/>
<feBlend mode="normal" in2="BackgroundImageFix" result="effect1_dropShadow_102_19"/>
<feBlend mode="normal" in="SourceGraphic" in2="effect1_dropShadow_102_19" result="shape"/>
</filter>
<filter id="filter6_d_102_19" x="39" y="78" width="20" height="20.6204" filterUnits="userSpaceOnUse" color-interpolation-filters="sRGB">
<feFlood flood-opacity="0" result="BackgroundImageFix"/>
<feColorMatrix in="SourceAlpha" type="matrix" values="0 0 0 0 0 0 0 0 0 0 0 0 0 0 0 0 0 0 127 0" result="hardAlpha"/>
<feOffset dy="4"/>
<feGaussianBlur stdDeviation="2"/>
<feComposite in2="hardAlpha" operator="out"/>
<feColorMatrix type="matrix" values="0 0 0 0 0 0 0 0 0 0 0 0 0 0 0 0 0 0 0.25 0"/>
<feBlend mode="normal" in2="BackgroundImageFix" result="effect1_dropShadow_102_19"/>
<feBlend mode="normal" in="SourceGraphic" in2="effect1_dropShadow_102_19" result="shape"/>
</filter>
<filter id="filter7_d_102_19" x="10" y="112" width="20" height="20.6204" filterUnits="userSpaceOnUse" color-interpolation-filters="sRGB">
<feFlood flood-opacity="0" result="BackgroundImageFix"/>
<feColorMatrix in="SourceAlpha" type="matrix" values="0 0 0 0 0 0 0 0 0 0 0 0 0 0 0 0 0 0 127 0" result="hardAlpha"/>
<feOffset dy="4"/>
<feGaussianBlur stdDeviation="2"/>
<feComposite in2="hardAlpha" operator="out"/>
<feColorMatrix type="matrix" values="0 0 0 0 0 0 0 0 0 0 0 0 0 0 0 0 0 0 0.25 0"/>
<feBlend mode="normal" in2="BackgroundImageFix" result="effect1_dropShadow_102_19"/>
<feBlend mode="normal" in="SourceGraphic" in2="effect1_dropShadow_102_19" result="shape"/>
</filter>
<filter id="filter8_d_102_19" x="16" y="161" width="20" height="20.6204" filterUnits="userSpaceOnUse" color-interpolation-filters="sRGB">
<feFlood flood-opacity="0" result="BackgroundImageFix"/>
<feColorMatrix in="SourceAlpha" type="matrix" values="0 0 0 0 0 0 0 0 0 0 0 0 0 0 0 0 0 0 127 0" result="hardAlpha"/>
<feOffset dy="4"/>
<feGaussianBlur stdDeviation="2"/>
<feComposite in2="hardAlpha" operator="out"/>
<feColorMatrix type="matrix" values="0 0 0 0 0 0 0 0 0 0 0 0 0 0 0 0 0 0 0.25 0"/>
<feBlend mode="normal" in2="BackgroundImageFix" result="effect1_dropShadow_102_19"/>
<feBlend mode="normal" in="SourceGraphic" in2="effect1_dropShadow_102_19" result="shape"/>
</filter>
<filter id="filter9_d_102_19" x="59" y="189" width="20" height="20.6204" filterUnits="userSpaceOnUse" color-interpolation-filters="sRGB">
<feFlood flood-opacity="0" result="BackgroundImageFix"/>
<feColorMatrix in="SourceAlpha" type="matrix" values="0 0 0 0 0 0 0 0 0 0 0 0 0 0 0 0 0 0 127 0" result="hardAlpha"/>
<feOffset dy="4"/>
<feGaussianBlur stdDeviation="2"/>
<feComposite in2="hardAlpha" operator="out"/>
<feColorMatrix type="matrix" values="0 0 0 0 0 0 0 0 0 0 0 0 0 0 0 0 0 0 0.25 0"/>
<feBlend mode="normal" in2="BackgroundImageFix" result="effect1_dropShadow_102_19"/>
<feBlend mode="normal" in="SourceGraphic" in2="effect1_dropShadow_102_19" result="shape"/>
</filter>
<filter id="filter10_d_102_19" x="67" y="232" width="20" height="20.6204" filterUnits="userSpaceOnUse" color-interpolation-filters="sRGB">
<feFlood flood-opacity="0" result="BackgroundImageFix"/>
<feColorMatrix in="SourceAlpha" type="matrix" values="0 0 0 0 0 0 0 0 0 0 0 0 0 0 0 0 0 0 127 0" result="hardAlpha"/>
<feOffset dy="4"/>
<feGaussianBlur stdDeviation="2"/>
<feComposite in2="hardAlpha" operator="out"/>
<feColorMatrix type="matrix" values="0 0 0 0 0 0 0 0 0 0 0 0 0 0 0 0 0 0 0.25 0"/>
<feBlend mode="normal" in2="BackgroundImageFix" result="effect1_dropShadow_102_19"/>
<feBlend mode="normal" in="SourceGraphic" in2="effect1_dropShadow_102_19" result="shape"/>
</filter>
<filter id="filter11_d_102_19" x="102" y="147" width="20" height="20.6204" filterUnits="userSpaceOnUse" color-interpolation-filters="sRGB">
<feFlood flood-opacity="0" result="BackgroundImageFix"/>
<feColorMatrix in="SourceAlpha" type="matrix" values="0 0 0 0 0 0 0 0 0 0 0 0 0 0 0 0 0 0 127 0" result="hardAlpha"/>
<feOffset dy="4"/>
<feGaussianBlur stdDeviation="2"/>
<feComposite in2="hardAlpha" operator="out"/>
<feColorMatrix type="matrix" values="0 0 0 0 0 0 0 0 0 0 0 0 0 0 0 0 0 0 0.25 0"/>
<feBlend mode="normal" in2="BackgroundImageFix" result="effect1_dropShadow_102_19"/>
<feBlend mode="normal" in="SourceGraphic" in2="effect1_dropShadow_102_19" result="shape"/>
</filter>
<filter id="filter12_d_102_19" x="65" y="23" width="20" height="20.6204" filterUnits="userSpaceOnUse" color-interpolation-filters="sRGB">
<feFlood flood-opacity="0" result="BackgroundImageFix"/>
<feColorMatrix in="SourceAlpha" type="matrix" values="0 0 0 0 0 0 0 0 0 0 0 0 0 0 0 0 0 0 127 0" result="hardAlpha"/>
<feOffset dy="4"/>
<feGaussianBlur stdDeviation="2"/>
<feComposite in2="hardAlpha" operator="out"/>
<feColorMatrix type="matrix" values="0 0 0 0 0 0 0 0 0 0 0 0 0 0 0 0 0 0 0.25 0"/>
<feBlend mode="normal" in2="BackgroundImageFix" result="effect1_dropShadow_102_19"/>
<feBlend mode="normal" in="SourceGraphic" in2="effect1_dropShadow_102_19" result="shape"/>
</filter>
<filter id="filter13_d_102_19" x="119" y="23" width="20" height="20.6204" filterUnits="userSpaceOnUse" color-interpolation-filters="sRGB">
<feFlood flood-opacity="0" result="BackgroundImageFix"/>
<feColorMatrix in="SourceAlpha" type="matrix" values="0 0 0 0 0 0 0 0 0 0 0 0 0 0 0 0 0 0 127 0" result="hardAlpha"/>
<feOffset dy="4"/>
<feGaussianBlur stdDeviation="2"/>
<feComposite in2="hardAlpha" operator="out"/>
<feColorMatrix type="matrix" values="0 0 0 0 0 0 0 0 0 0 0 0 0 0 0 0 0 0 0.25 0"/>
<feBlend mode="normal" in2="BackgroundImageFix" result="effect1_dropShadow_102_19"/>
<feBlend mode="normal" in="SourceGraphic" in2="effect1_dropShadow_102_19" result="shape"/>
</filter>
</defs>
</svg>
