<svg xmlns="http://www.w3.org/2000/svg" viewBox="0 0 500 500"><g id="freepik--Floor--inject-88"><polygon points="41.18 404.79 93.39 404.55 145.59 404.46 250 404.29 354.41 404.46 406.62 404.55 458.82 404.79 406.62 405.03 354.41 405.12 250 405.29 145.59 405.12 93.39 405.03 41.18 404.79" style="fill:#263238"></polygon></g><g id="freepik--Shadows--inject-88"><ellipse cx="250" cy="440.61" rx="200.08" ry="27.5" style="fill:#ebebeb"></ellipse></g><g id="freepik--Lamp--inject-88"><rect x="378.76" y="397.08" width="67.83" height="7.71" style="fill:#455a64"></rect><rect x="408.66" y="157.8" width="8.04" height="239.27" style="fill:#455a64"></rect><rect x="408.66" y="157.8" width="8.04" height="40.72" style="fill:#263238"></rect><polygon points="455.22 181.38 370.13 181.38 376.31 161.06 376.54 160.34 394.53 101.22 430.82 101.22 448.83 160.35 448.83 160.37 449.02 161.04 455.22 181.38" style="fill:#CFD8DC"></polygon><path d="M397.54,114.88a.58.58,0,0,1-.57.57.57.57,0,0,1-.57-.57.56.56,0,0,1,.57-.57A.57.57,0,0,1,397.54,114.88Z" style="fill:#fff"></path><path d="M408,114.88a.58.58,0,0,1-1.15,0,.58.58,0,0,1,1.15,0Z" style="fill:#fff"></path><path d="M418.49,114.88a.57.57,0,0,1-.57.57.58.58,0,0,1-.57-.57.57.57,0,0,1,.57-.57A.56.56,0,0,1,418.49,114.88Z" style="fill:#fff"></path><path d="M429,114.88a.58.58,0,0,1-.57.57.57.57,0,0,1-.57-.57.56.56,0,0,1,.57-.57A.57.57,0,0,1,429,114.88Z" style="fill:#fff"></path><path d="M402.78,107.54a.58.58,0,1,1-.57-.57A.57.57,0,0,1,402.78,107.54Z" style="fill:#fff"></path><path d="M413.25,107.54a.56.56,0,0,1-.57.57.57.57,0,1,1,0-1.14A.56.56,0,0,1,413.25,107.54Z" style="fill:#fff"></path><path d="M423.73,107.54a.57.57,0,1,1-.57-.57A.56.56,0,0,1,423.73,107.54Z" style="fill:#fff"></path><path d="M387.06,130.11a.57.57,0,1,1-.57-.57A.57.57,0,0,1,387.06,130.11Z" style="fill:#fff"></path><path d="M397.54,130.11a.58.58,0,0,1-.57.58.58.58,0,1,1,.57-.58Z" style="fill:#fff"></path><path d="M408,130.11a.58.58,0,1,1-.58-.57A.58.58,0,0,1,408,130.11Z" style="fill:#fff"></path><path d="M418.49,130.11a.57.57,0,0,1-.57.58.58.58,0,0,1,0-1.15A.57.57,0,0,1,418.49,130.11Z" style="fill:#fff"></path><path d="M429,130.11a.58.58,0,0,1-.57.58.58.58,0,1,1,.57-.58Z" style="fill:#fff"></path><path d="M439.45,130.11a.58.58,0,1,1-.57-.57A.58.58,0,0,1,439.45,130.11Z" style="fill:#fff"></path><path d="M392.3,122.78a.58.58,0,0,1-.57.57.58.58,0,0,1,0-1.15A.58.58,0,0,1,392.3,122.78Z" style="fill:#fff"></path><path d="M402.78,122.78a.58.58,0,1,1-.57-.58A.58.58,0,0,1,402.78,122.78Z" style="fill:#fff"></path><path d="M413.25,122.78a.57.57,0,0,1-.57.57.58.58,0,1,1,.57-.57Z" style="fill:#fff"></path><path d="M423.73,122.78a.57.57,0,1,1-.57-.58A.57.57,0,0,1,423.73,122.78Z" style="fill:#fff"></path><path d="M434.21,122.78a.58.58,0,0,1-.57.57.58.58,0,0,1,0-1.15A.58.58,0,0,1,434.21,122.78Z" style="fill:#fff"></path><path d="M387.06,145.35a.57.57,0,1,1-1.14,0,.57.57,0,1,1,1.14,0Z" style="fill:#fff"></path><path d="M397.54,145.35a.58.58,0,0,1-.57.57.57.57,0,0,1-.57-.57.56.56,0,0,1,.57-.57A.57.57,0,0,1,397.54,145.35Z" style="fill:#fff"></path><path d="M408,145.35a.58.58,0,0,1-1.15,0,.58.58,0,0,1,1.15,0Z" style="fill:#fff"></path><path d="M418.49,145.35a.57.57,0,0,1-.57.57.58.58,0,0,1-.57-.57.57.57,0,0,1,.57-.57A.56.56,0,0,1,418.49,145.35Z" style="fill:#fff"></path><path d="M429,145.35a.58.58,0,0,1-.57.57.57.57,0,0,1-.57-.57.56.56,0,0,1,.57-.57A.57.57,0,0,1,429,145.35Z" style="fill:#fff"></path><path d="M439.45,145.35a.58.58,0,1,1-.57-.57A.57.57,0,0,1,439.45,145.35Z" style="fill:#fff"></path><path d="M392.3,138a.57.57,0,0,1-.57.57.57.57,0,1,1,0-1.14A.57.57,0,0,1,392.3,138Z" style="fill:#fff"></path><path d="M402.78,138a.58.58,0,1,1-.57-.57A.57.57,0,0,1,402.78,138Z" style="fill:#fff"></path><circle cx="412.68" cy="138.01" r="0.57" style="fill:#fff"></circle><path d="M423.73,138a.57.57,0,1,1-.57-.57A.56.56,0,0,1,423.73,138Z" style="fill:#fff"></path><circle cx="433.64" cy="138.01" r="0.57" style="fill:#fff"></circle><path d="M376.59,160.58a.54.54,0,0,1-.28.48l.23-.72A.52.52,0,0,1,376.59,160.58Z" style="fill:#fff"></path><path d="M387.06,160.58a.57.57,0,1,1-.57-.57A.57.57,0,0,1,387.06,160.58Z" style="fill:#fff"></path><path d="M397.54,160.58a.58.58,0,0,1-.57.58.58.58,0,1,1,.57-.58Z" style="fill:#fff"></path><path d="M408,160.58a.58.58,0,1,1-.58-.57A.58.58,0,0,1,408,160.58Z" style="fill:#fff"></path><path d="M418.49,160.58a.57.57,0,0,1-.57.58.58.58,0,0,1,0-1.15A.57.57,0,0,1,418.49,160.58Z" style="fill:#fff"></path><path d="M429,160.58a.58.58,0,0,1-.57.58.58.58,0,1,1,.57-.58Z" style="fill:#fff"></path><circle cx="438.88" cy="160.58" r="0.57" style="fill:#fff"></circle><path d="M449,161a.55.55,0,0,1-.23-.46.46.46,0,0,1,0-.21Z" style="fill:#fff"></path><path d="M381.82,153.25a.57.57,0,0,1-.57.57.58.58,0,1,1,.57-.57Z" style="fill:#fff"></path><path d="M392.3,153.25a.58.58,0,0,1-.57.57.58.58,0,0,1,0-1.15A.58.58,0,0,1,392.3,153.25Z" style="fill:#fff"></path><path d="M402.78,153.25a.58.58,0,1,1-.57-.58A.58.58,0,0,1,402.78,153.25Z" style="fill:#fff"></path><path d="M413.25,153.25a.57.57,0,0,1-.57.57.58.58,0,1,1,.57-.57Z" style="fill:#fff"></path><path d="M423.73,153.25a.57.57,0,1,1-.57-.58A.57.57,0,0,1,423.73,153.25Z" style="fill:#fff"></path><path d="M434.21,153.25a.58.58,0,0,1-.57.57.58.58,0,0,1,0-1.15A.58.58,0,0,1,434.21,153.25Z" style="fill:#fff"></path><path d="M444.69,153.25a.58.58,0,1,1-.58-.58A.58.58,0,0,1,444.69,153.25Z" style="fill:#fff"></path><path d="M376.58,175.82a.57.57,0,0,1-.57.57.58.58,0,0,1-.57-.57.57.57,0,0,1,.57-.57A.56.56,0,0,1,376.58,175.82Z" style="fill:#fff"></path><path d="M387.06,175.82a.57.57,0,1,1-1.14,0,.57.57,0,1,1,1.14,0Z" style="fill:#fff"></path><path d="M397.54,175.82a.58.58,0,0,1-.57.57.57.57,0,0,1-.57-.57.56.56,0,0,1,.57-.57A.57.57,0,0,1,397.54,175.82Z" style="fill:#fff"></path><path d="M408,175.82a.58.58,0,0,1-1.15,0,.58.58,0,0,1,1.15,0Z" style="fill:#fff"></path><path d="M418.49,175.82a.57.57,0,0,1-.57.57.58.58,0,0,1-.57-.57.57.57,0,0,1,.57-.57A.56.56,0,0,1,418.49,175.82Z" style="fill:#fff"></path><path d="M429,175.82a.58.58,0,0,1-.57.57.57.57,0,0,1-.57-.57.56.56,0,0,1,.57-.57A.57.57,0,0,1,429,175.82Z" style="fill:#fff"></path><circle cx="438.88" cy="175.82" r="0.57" style="fill:#fff"></circle><path d="M449.93,175.82a.58.58,0,0,1-1.15,0,.58.58,0,0,1,1.15,0Z" style="fill:#fff"></path><path d="M381.82,168.48a.56.56,0,0,1-.57.57.57.57,0,1,1,0-1.14A.56.56,0,0,1,381.82,168.48Z" style="fill:#fff"></path><path d="M392.3,168.48a.57.57,0,0,1-.57.57.57.57,0,1,1,0-1.14A.57.57,0,0,1,392.3,168.48Z" style="fill:#fff"></path><path d="M402.78,168.48a.58.58,0,1,1-.57-.57A.57.57,0,0,1,402.78,168.48Z" style="fill:#fff"></path><path d="M413.25,168.48a.56.56,0,0,1-.57.57.57.57,0,1,1,0-1.14A.56.56,0,0,1,413.25,168.48Z" style="fill:#fff"></path><path d="M423.73,168.48a.57.57,0,1,1-.57-.57A.56.56,0,0,1,423.73,168.48Z" style="fill:#fff"></path><path d="M434.21,168.48a.57.57,0,0,1-.57.57.57.57,0,1,1,0-1.14A.57.57,0,0,1,434.21,168.48Z" style="fill:#fff"></path><path d="M444.69,168.48a.58.58,0,1,1-.58-.57A.57.57,0,0,1,444.69,168.48Z" style="fill:#fff"></path></g><g id="freepik--Chair--inject-88"><path d="M102.51,426.94l191.46.83c46.54-36.55,51.34-90.69,18.15-123.5-20.1-19.85-45.61-15.85-69.91-19l-.07,0c-8.46-1.1-16.76-3.07-24.64-7.23-25-13.2-39.12-44.33-60.17-70.52q-3.93-4.92-8.24-9.55c-17.3-18.48-51.75-19.08-69.77,6.9C33.54,270.86,54.51,369.12,102.51,426.94Z" style="fill:#c7c7c7"></path><path d="M98.26,275.9c5,78.55,95.73,107.87,152.39,84.34,49.27-20.46,33.14-67.16-8.44-75l-.07,0c-8.46-1.1-16.76-3.07-24.64-7.23-25-13.2-39.12-44.33-60.17-70.52C126,191.22,94.58,218.38,98.26,275.9Z" style="fill:#a6a6a6"></path></g><g id="freepik--Character--inject-88"><path d="M418,437.56c-3.28.08-88.19-26.17-90.79-29.21-.28-.34,1.14-4,3.33-14,.1-.48-1.17-2.94-3.25-6.5-7.82-13.38-27-42.54-27-42.54L355,324.06l26.17,54.22,6.8,14.1s28.33,28.48,30.84,32.13S421.31,437.49,418,437.56Z" style="fill:#ad6359"></path><path d="M418,437.57c-3.27.07-88.19-26.17-90.79-29.22-.28-.33,1.14-4,3.34-14a0,0,0,0,1,0,0c14.15,5.82,73.53,30,77.68,27,2.47-1.77.4-6.47-2.14-10.55,6.11,6.31,11.67,12.16,12.71,13.69C421.32,428.16,421.31,437.49,418,437.57Z" style="fill:#263238"></path><path d="M373.11,354.45l-9.06,5-29.26,16.25-16,8.88s-27.57-55-40.84-69.85l0,0a21.08,21.08,0,0,0-2.42-2.37h0a12.67,12.67,0,0,0-4.34-1.09h0c-17.79-2.16-77.68,3.66-119.06,1l19.33-25.83L180,275c46.62-5.32,103.83-24.38,129.65-11.43C337.64,277.6,373.11,354.45,373.11,354.45Z" style="fill:#37474f"></path><path d="M364,348.15c-9.15,4.77-6.58,3.28-15.68,8.15-4.45,2.38-26.85,14.29-30.63,17.2a.1.1,0,0,0,.1.17c4.49-1.61,26.62-14,31-16.46,9-5,6.37-3.68,15.32-8.81A.14.14,0,0,0,364,348.15Z" style="fill:#263238"></path><path d="M334.79,375.73l-16,8.88s-27.57-55-40.84-69.85Z" style="fill:#263238"></path><path d="M324.38,377.07c-6.81-11.38-37.81-67.59-44-69.8-5.62-2-118,.32-119.68.34-.12,0-.13.18,0,.18,13.31-.17,116-.54,119,.62,6.09,2.41,43.17,67.61,44.08,69C324,377.74,324.62,377.46,324.38,377.07Z" style="fill:#263238"></path><path d="M120.62,288.74s-3.55,33.9,13.65,50.75c20.58,20.18,156.39,15.08,177.44,8.28s21.71-40.77-1.3-48.64c-21.89-7.48-118.93-11.79-121.23-12.7s-9-11.66-9-11.66Z" style="fill:#37474f"></path><path d="M149.37,287.79c0-.16-.28-.11-.28,0a18.69,18.69,0,0,1-4.38,12c-3.22,3.72-8,5.81-12.28,8-.42.21-.1.85.33.73a38.43,38.43,0,0,0,7.6-3.28,18.51,18.51,0,0,0,5.72-4.76A16.34,16.34,0,0,0,149.37,287.79Z" style="fill:#263238"></path><path d="M188.25,284.31c-1-1.22-2-2.39-3-3.58-2.37-2.83-4.75-5.66-7.24-8.38-.23-.26-.69.1-.48.39,1.68,2.19,3.45,4.3,5.19,6.44l2.69,3.27a20.32,20.32,0,0,1,2.52,3.19c.65,1.21-.21,2.25-1.46,2.38a4.36,4.36,0,0,1-3-1.11,40.59,40.59,0,0,1-5.14-5.5q-1.5-1.68-3-3.35c-1.08-1.18-2.23-2.3-3.3-3.48a.09.09,0,0,0-.14.12c.94,1.28,1.8,2.63,2.75,3.92s1.89,2.57,2.86,3.84,1.87,2.37,2.85,3.52a11.89,11.89,0,0,0,2.89,2.59c1.8,1.06,4.93,1.29,5.89-1A3.29,3.29,0,0,0,188.25,284.31Z" style="fill:#263238"></path><path d="M308.83,347.9c-7.25.13-14.49.55-21.74.71s-14.37.19-21.56.12q-21.66-.19-43.29-1.68c-14.56-1-30.26-2.46-44.72-4.46-6.92-1-13.93-1.76-20.77-3.23A32.74,32.74,0,0,1,140.36,331c-9.36-9.08-13-22.44-14.5-35.2-.2-1.71-.37-3.43-.51-5.14,0-.12-.18-.12-.17,0,.84,13.09,2.88,26.73,11.11,37.25a32.69,32.69,0,0,0,13.4,10.4c6.48,2.6,13.67,3.21,20.5,4.13,14.52,2,30.29,3.49,44.89,4.63s29.43,1.85,44.17,2.07,29.48,0,44.2-.72c1.8-.09,3.59-.19,5.39-.35C308.94,348.05,308.94,347.89,308.83,347.9Z" style="fill:#263238"></path><path d="M328.18,316.22a23.32,23.32,0,0,0-9.71-13.88c-5.21-3.56-11.45-5.18-17.63-6.08-7-1-14.06-1.53-21.09-2.22q-21.62-2.1-43.28-3.88c-14.43-1.18-45.5-3.6-47.25-3.67-.15,0-.18.26,0,.27,13.93,1.55,26.6,2.88,40.55,4.15s28.05,2.61,42.06,4q10.47,1,20.94,2.11c6.47.67,13.12,1.33,19.19,3.83,5.2,2.14,9.88,5.59,12.54,10.65a25,25,0,0,1,2.08,16.11,28.45,28.45,0,0,1-6.74,13.63,24.09,24.09,0,0,1-12.61,7.61c-1.28.28-2.82.48-4,.71-.09,0-.18.21-.09.21,10.43.26,20.08-7.36,23.84-16.88A27.92,27.92,0,0,0,328.18,316.22Z" style="fill:#263238"></path><path d="M154.34,223.64c23.37,14.38,71.09,28.77,77,18.74,7.29-12.34-6.51-41.76-7.81-45.73-1.4-4.25-35.48,10.34-32.43,14,1.8,2.18,3.24,4.72,2.49,4.72-2.34,0-8.45-2.28-32.35-5.57C148,208,138.87,214.12,154.34,223.64Z" style="fill:#ad6359"></path><path d="M186.23,212.47l-4.95,11.06-6.23,13.91s-15.91-6.65-24.52-13.91c-6.32-5.34-8.68-11-5.54-13.69,1.14-1,3-1.56,5.6-1.61C165.58,208,186.23,212.47,186.23,212.47Z" style="fill:#CFD8DC"></path><path d="M180.73,212.24c-2.07,4.21-9.47,19.72-9.65,22,0,.05.15.12.18.08,1.54-1.66,8-17.57,9.73-22C181,212.27,180.77,212.16,180.73,212.24Z" style="fill:#263238"></path><path d="M181.28,223.53l-6.23,13.91s-15.91-6.65-24.52-13.91c-6.32-5.34-8.68-11-5.54-13.69Z" style="fill:#263238"></path><path d="M216.32,178.17c4.55,5.85,9.17,21.45,8.84,25.64s-26.6,12.93-30.18,10.52-17.37-23.28-17.26-30.84S211.61,172.11,216.32,178.17Z" style="fill:#ad6359"></path><path d="M177.67,166.41c-2.29-2.56-11.06-9-13.27-7s2.77,7.9,4.87,10.22c4.32,4.78,7.52,13.1,9,17.15s9.3-3.59,9.3-3.59S183.61,173.05,177.67,166.41Z" style="fill:#ad6359"></path><path d="M183.11,191.43s2.42,7.22,6.76,7.21c4.18,0,3.43-6.19,3.38-6.64.13.38,2.52,7,6.88,6.5,4.53-.48,2.71-6.55,2.59-6.94.24.32,3.44,4.51,6.67,3.41,5.55-1.9-2.34-12.84-1.38-17.49,0,0,8.07.72,8.31.69,0,0-7.29-10.56-13.64-11.5a4.09,4.09,0,0,0-4.47,2.52s-2-3.66-5.42-3.41c-1.76.14-3.12,3.09-3.12,3.09s-1.7-2.87-4.75-2.45c-2.44.32-3.74,3.31-3.92,4.47C179.66,179.84,183.11,191.43,183.11,191.43Z" style="fill:#ad6359"></path><path d="M181.28,170.09c0-.07-.1-.09-.11,0a36.51,36.51,0,0,0,1.94,21.64c.09.21.48.15.42-.1A75,75,0,0,1,181.28,170.09Z" style="fill:#263238"></path><path d="M189.62,168.76c0-.08-.13-.09-.14,0-1.49,7.19-.66,16.32,3.58,23.48.14.24.52.32.38,0C191,187.29,189.25,175.56,189.62,168.76Z" style="fill:#263238"></path><path d="M203.19,192c-3.8-7-5-14.56-5.06-22.47,0-.1-.15-.09-.17,0-1,3.89-.43,8.92.36,12.8a21,21,0,0,0,4.62,9.81C203,192.2,203.27,192.11,203.19,192Z" style="fill:#263238"></path><path d="M183.11,191.43a23.94,23.94,0,0,0,2.13,3.84,8.14,8.14,0,0,0,3.07,2.86,2.69,2.69,0,0,0,1.89.12,3.85,3.85,0,0,0,1.64-1.06,4.67,4.67,0,0,0,.92-3.7l-.43-3.19,1.52,2.84a13.39,13.39,0,0,0,2.55,3.42,4.75,4.75,0,0,0,3.55,1.5,2.69,2.69,0,0,0,2.56-2.22,8,8,0,0,0-.39-4.06l-1.18-3.62,2.3,3a12.38,12.38,0,0,0,2.2,2.26,5.15,5.15,0,0,0,2.7,1.19,2.45,2.45,0,0,0,2.27-1.17,5.44,5.44,0,0,0,.32-3,41.7,41.7,0,0,0-1.57-6.42c-.31-1.07-.62-2.15-.88-3.24a8,8,0,0,1-.27-3.33,8.48,8.48,0,0,0,.57,3.25c.34,1.06.73,2.1,1.12,3.14a35.94,35.94,0,0,1,1.94,6.48,6.29,6.29,0,0,1-.27,3.59,3.46,3.46,0,0,1-3.29,1.86,6.28,6.28,0,0,1-3.38-1.38,14.25,14.25,0,0,1-2.49-2.48l1.11-.6a9.44,9.44,0,0,1,.51,4.79,3.91,3.91,0,0,1-1.34,2.28,4.39,4.39,0,0,1-2.43.93,5.94,5.94,0,0,1-4.49-1.89,14.51,14.51,0,0,1-2.76-3.8l1.09-.35a5.64,5.64,0,0,1-1.38,4.53,4.87,4.87,0,0,1-2.1,1.2,3.42,3.42,0,0,1-2.4-.26,8.32,8.32,0,0,1-3.11-3.29A20.34,20.34,0,0,1,183.11,191.43Z" style="fill:#263238"></path><path d="M192,211.19S164.5,196,175.72,188.13c3.33-2.32,19.8-7.91,21-4.62,1.53,4.24-4.9,7.85-9.3,9.48,0,0,10.08,3.86,9.48,11.68A7.78,7.78,0,0,1,192,211.19Z" style="fill:#ad6359"></path><path d="M174.83,188.84a16.49,16.49,0,0,1,4-2.63,35.85,35.85,0,0,1,4.44-1.85,55.36,55.36,0,0,1,9.33-2.43,9.07,9.07,0,0,1,2.56-.06,3.2,3.2,0,0,1,1.37.49,2.41,2.41,0,0,1,.6.53,2.58,2.58,0,0,1,.39.7,4,4,0,0,1-.08,2.81,7.45,7.45,0,0,1-1.41,2.21,14.75,14.75,0,0,1-4,2.95,32.46,32.46,0,0,1-4.45,1.95v-1a20.24,20.24,0,0,1,3.25,1.75,18.49,18.49,0,0,1,2.83,2.32,12.49,12.49,0,0,1,2.14,3,9.33,9.33,0,0,1,1,3.45,10.7,10.7,0,0,0-1.37-3.26,12.62,12.62,0,0,0-2.3-2.64,16.93,16.93,0,0,0-2.83-2.06,19.39,19.39,0,0,0-3.13-1.48l-1.35-.47,1.34-.57a35.62,35.62,0,0,0,4.23-2,14.28,14.28,0,0,0,3.61-2.74c1-1.07,1.66-2.51,1.23-3.66s-2-1.05-3.52-.88-3.08.51-4.62.84-3.09.7-4.6,1.14C180.52,186.09,177.45,187,174.83,188.84Z" style="fill:#263238"></path><path d="M193.62,215.41l2.15,2.49,2.11,2.51,4.23,5c1.41,1.66,2.83,3.31,4.28,4.93.73.82,1.45,1.63,2.21,2.41s1.52,1.56,2.28,2.36a40,40,0,0,1-5-4.23c-1.59-1.52-3.05-3.16-4.49-4.82s-2.78-3.39-4.06-5.17S194.74,217.3,193.62,215.41Z" style="fill:#263238"></path><path d="M191.06,281.54c-.94,3.31-51.2,21.45-76,16.4,0,0-3.55-46.37,17.63-82.32,5.07-8.6,17.13-8.83,23.68-5a53.57,53.57,0,0,1,6.62,5c6.34,5.46,17.68,19.35,19.3,23.4,2.66,6.69-2,15.43-2,15.43Z" style="fill:#CFD8DC"></path><path d="M126.45,222.22c-15.47,21-30.55,60-20.48,67.13,13.56,9.59,55.39,15.09,88.4,14.38,4.57-.1-.42-34.64-5.3-34.78-6.16-.19-53-1.68-54.2-2.95-1-1.09,2.18-18.57,3.75-36.85C140.46,207.78,130.87,216.21,126.45,222.22Z" style="fill:#ad6359"></path><path d="M188.11,268.91s13.88-1,23-1.27c5.08-.14,13.81.4,17.59,2,5.65,2.4,27.75,16.06,24.56,21.49-2.9,4.92-20.39-9.23-20.39-9.23s18.91,12.71,14.34,18S225,286.57,225,286.57s19.14,13.5,13.56,18.19c-4.21,3.55-21.14-12.4-21.14-12.4s16.38,11.71,12.2,15.55c-4.62,4.24-21.17-9.51-21.17-9.51-12.26,8-21.35,6.74-27.72,5.11C179.17,303.11,188.11,268.91,188.11,268.91Z" style="fill:#ad6359"></path><path d="M226.58,277.09c2.28,1.42,4.59,2.83,6.74,4.44s4.23,3.3,6.21,5.1a45.23,45.23,0,0,1,7.05,7.75c-4-4.78-11.58-10.66-13.72-12.28s-4.2-3.32-6.34-4.93C226.47,277.13,226.53,277.06,226.58,277.09Z" style="fill:#263238"></path><path d="M220.63,284.73c2.83,1.93,5.71,3.74,8.45,5.79s5.14,4.23,7.73,6.46c.19.17,0,.22-.17.06-2.67-2.13-5.3-3.88-8-6s-5.3-4.29-8.06-6.27C220.53,284.76,220.59,284.7,220.63,284.73Z" style="fill:#263238"></path><path d="M214.34,290.36a76.78,76.78,0,0,1,12.24,9.85c.19.18,0,.22-.22.05-4-3.35-7.13-6-12.12-9.75C214.17,290.45,214.24,290.3,214.34,290.36Z" style="fill:#263238"></path><path d="M108.8,249l30.39-.85s2-14.59,1.69-24.73c-.21-6.65-1-12.81-1.84-13.13-1.1-.42-5.48,2.05-9.49,6.52A122.33,122.33,0,0,0,108.8,249Z" style="fill:#CFD8DC"></path><path d="M138,243.43c-4.68-.26-17.42-.59-25.72.28,0,0,0,.19,0,.2,7,.32,21,0,25.72-.2C138.08,243.71,138.08,243.43,138,243.43Z" style="fill:#263238"></path><path d="M141.52,233.55c-.27.72-.51,1.44-.73,2.17,0,.1-.06.21-.1.31.13-1.85.22-3.7.2-5.55,0,0-.08-.07-.09,0-.39,2.88-2.07,17.39-2.07,17.39-.26,0-2.08.35-2.2.34s-.1.18,0,.15,2.32,0,2.92-.06a29.27,29.27,0,0,0,.55-4.19c.16-1.53.29-3,.41-4.58.06-.69.11-1.38.16-2.06s.27-1.16.43-1.73.42-1.43.65-2.14C141.7,233.49,141.55,233.46,141.52,233.55Z" style="fill:#263238"></path><path d="M131.35,215s17.15,9.68,24.34,5.51c3.73-2.16,3.13-12,3.13-12a30.6,30.6,0,0,0-16.59-.12A26,26,0,0,0,131.35,215Z" style="fill:#ad6359"></path><ellipse cx="135.89" cy="169.61" rx="30.97" ry="32.17" style="fill:#263238"></ellipse><path d="M121.06,192.76a4.27,4.27,0,1,1-4.26-4.26A4.27,4.27,0,0,1,121.06,192.76Z" style="fill:#263238"></path><path d="M166.31,186.37A4.27,4.27,0,1,1,162,182.1,4.27,4.27,0,0,1,166.31,186.37Z" style="fill:#263238"></path><path d="M170.58,166.46a4.27,4.27,0,1,1-4.27-4.27A4.27,4.27,0,0,1,170.58,166.46Z" style="fill:#263238"></path><path d="M111.31,162.58a4.27,4.27,0,1,1-4.27-4.26A4.27,4.27,0,0,1,111.31,162.58Z" style="fill:#263238"></path><path d="M116.8,151.1a4.27,4.27,0,1,1-4.27-4.27A4.27,4.27,0,0,1,116.8,151.1Z" style="fill:#263238"></path><path d="M122,146.27a4.27,4.27,0,1,1-4.27-4.26A4.27,4.27,0,0,1,122,146.27Z" style="fill:#263238"></path><path d="M127.12,141a4.27,4.27,0,1,1-4.26-4.26A4.27,4.27,0,0,1,127.12,141Z" style="fill:#263238"></path><path d="M133.87,140.2a4.27,4.27,0,1,1-4.27-4.26A4.27,4.27,0,0,1,133.87,140.2Z" style="fill:#263238"></path><path d="M153.64,140.2a4.27,4.27,0,1,1-4.27-4.26A4.27,4.27,0,0,1,153.64,140.2Z" style="fill:#263238"></path><path d="M163.09,148.58a4.27,4.27,0,1,1-4.27-4.27A4.27,4.27,0,0,1,163.09,148.58Z" style="fill:#263238"></path><circle cx="109.19" cy="181.33" r="4.27" style="fill:#263238"></circle><path d="M132.31,198.47a4.27,4.27,0,1,1-4.27-4.26A4.27,4.27,0,0,1,132.31,198.47Z" style="fill:#263238"></path><path d="M138.36,198.53a4.27,4.27,0,1,1-4.26-4.27A4.26,4.26,0,0,1,138.36,198.53Z" style="fill:#263238"></path><path d="M111.31,175.08a4.27,4.27,0,1,1-4.27-4.27A4.27,4.27,0,0,1,111.31,175.08Z" style="fill:#263238"></path><circle cx="112.09" cy="187.59" r="3.87" style="fill:#263238"></circle><path d="M140.15,138.13a3.88,3.88,0,1,1-3.87-3.87A3.88,3.88,0,0,1,140.15,138.13Z" style="fill:#263238"></path><path d="M110.92,168.85A3.88,3.88,0,1,1,107,165,3.88,3.88,0,0,1,110.92,168.85Z" style="fill:#263238"></path><circle cx="109.19" cy="156.72" r="3.87" style="fill:#263238"></circle><circle cx="142.56" cy="138.59" r="3.87" style="fill:#263238"></circle><path d="M126.34,196.1a3.88,3.88,0,1,1-3.87-3.88A3.87,3.87,0,0,1,126.34,196.1Z" style="fill:#263238"></path><path d="M144,200a3.88,3.88,0,1,1-3.88-3.87A3.88,3.88,0,0,1,144,200Z" style="fill:#263238"></path><circle cx="147.08" cy="198.53" r="3.87" style="fill:#263238"></circle><circle cx="152.54" cy="194.65" r="3.87" style="fill:#263238"></circle><path d="M162.7,192a3.88,3.88,0,1,1-3.88-3.87A3.88,3.88,0,0,1,162.7,192Z" style="fill:#263238"></path><path d="M169.57,180.9A3.88,3.88,0,1,1,165.7,177,3.88,3.88,0,0,1,169.57,180.9Z" style="fill:#263238"></path><path d="M169.57,173.75a3.88,3.88,0,1,1-3.87-3.87A3.88,3.88,0,0,1,169.57,173.75Z" style="fill:#263238"></path><path d="M158.82,143a3.88,3.88,0,1,1-3.87-3.87A3.88,3.88,0,0,1,158.82,143Z" style="fill:#263238"></path><circle cx="163.93" cy="153.53" r="3.87" style="fill:#263238"></circle><circle cx="164.78" cy="159.67" r="3.87" style="fill:#263238"></circle><path d="M140,211c.62,1.26,9,8.45,15,6.77,2-.56-.58-11.4-.58-11.4v-.84l-.07-11.81-15.13-5.43-2.16-.68s.23,3.23.56,7.24c0,.19,0,.37,0,.57s0,.45,0,.66c0,.6.09,1.21.14,1.82s.08.92.14,1.4.11,1,.16,1.46A77.09,77.09,0,0,0,140,211Z" style="fill:#ad6359"></path><path d="M137.65,194.83a23.7,23.7,0,0,0,16.8,10.68l-.07-11.81-15.13-5.43-2.16-.68S137.32,190.82,137.65,194.83Z" style="fill:#263238"></path><path d="M167.29,171c7.3,19.39-3.49,25.95-7.67,27.52-3.8,1.42-16.9,5.79-26.17-12.74s-2.55-28.05,6-31.77S160,151.58,167.29,171Z" style="fill:#ad6359"></path><path d="M162.65,169.56c-.48.09-.94.1-1.42.15a2.34,2.34,0,0,1-1.48-.13.74.74,0,0,1-.27-.86,1.83,1.83,0,0,1,1.58-1,2.69,2.69,0,0,1,1.9.4A.78.78,0,0,1,162.65,169.56Z" style="fill:#263238"></path><path d="M149,172a11.68,11.68,0,0,0,1.24-.71,2.29,2.29,0,0,0,1.14-1,.75.75,0,0,0-.28-.86,1.84,1.84,0,0,0-1.85.15,2.66,2.66,0,0,0-1.31,1.41A.78.78,0,0,0,149,172Z" style="fill:#263238"></path><path d="M153.26,176.16s-.08.1-.06.15c.5,1.32.85,2.92-.2,3.78,0,0,0,.09,0,.07C154.44,179.44,154,177.33,153.26,176.16Z" style="fill:#263238"></path><path d="M151.59,175.18c-2.2.58-.89,4.94,1.15,4.4S153.43,174.7,151.59,175.18Z" style="fill:#263238"></path><path d="M150.8,175.67c-.3.36-.55.91-1,1.09s-1.06-.12-1.54-.45c0,0-.07,0-.05.07.24.84.82,1.6,1.75,1.45s1.21-1.05,1.17-2C151.13,175.71,150.92,175.52,150.8,175.67Z" style="fill:#263238"></path><path d="M160.87,173.23s.12,0,.14.09c.35,1.36,1,2.87,2.35,3,0,0,0,.07,0,.08C161.81,176.59,161,174.58,160.87,173.23Z" style="fill:#263238"></path><path d="M161.66,171.46c2.13-.8,3.58,3.51,1.61,4.26S159.88,172.14,161.66,171.46Z" style="fill:#263238"></path><path d="M162.66,171.44c.42.12.89.42,1.31.31s.67-.71.83-1.26c0-.06.06,0,.08,0,.3.82.31,1.77-.42,2.19s-1.45-.14-1.92-.89C162.45,171.67,162.49,171.4,162.66,171.44Z" style="fill:#263238"></path><path d="M156.39,186.56a2.16,2.16,0,0,0,1.35.51,3.77,3.77,0,0,0,1.39-.72s.09,0,.07.06a1.9,1.9,0,0,1-1.54,1.18,1.51,1.51,0,0,1-1.39-.94C156.23,186.58,156.33,186.52,156.39,186.56Z" style="fill:#263238"></path><path d="M160.48,179.92s1,2.24,1.31,3.19a33,33,0,0,0-5.77,1.48c-.11,0-.28-.13,0-.33,1.47-1.15,4.83-1.73,4.83-1.73a30.55,30.55,0,0,1-1.52-3.3,9.19,9.19,0,0,1,2.3-.19c-1.78-4-4.19-7.79-5.91-11.86,0-.15.15-.26.23-.14,2.81,3.74,5,8.36,6.91,12.51C163.09,180.06,160.91,180,160.48,179.92Z" style="fill:#263238"></path><path d="M135,185.64c3.83.7,1-5,1-5s2.66-2.46.17-6.4c0,0,4.49.34,3.66-5.73,0,0,3.56-1.07,2.4-5.14,0,0,5.55,1.69,6.58-3.39,0,0,4.46,3.22,6.46-1.34,0,0,2,2.44,4.71.89,0,0,1.11,2.78,3.41,3.25,0,0-10.47-19.51-27.69-8.17C119.73,165.11,130.5,184.82,135,185.64Z" style="fill:#263238"></path><path d="M137.09,186.08s-6.1-5-8.49-2.66,3.42,10.45,7.08,10.76a3.5,3.5,0,0,0,4-3.08Z" style="fill:#ad6359"></path><path d="M130.33,185.7a.05.05,0,0,0,0,.1c2.59.29,4.42,2.1,5.91,4.1a1.93,1.93,0,0,0-2.93.27c-.05.06,0,.14.1.1a2.15,2.15,0,0,1,2.48.09,10.2,10.2,0,0,1,1.61,1.54c.17.18.52,0,.37-.26l0,0C137.06,188.61,133.59,185.11,130.33,185.7Z" style="fill:#263238"></path><path d="M123.11,171.85l-.92,2.42,8.15,4.84,1.95-5.44Zm6.47,4.92-5.59-2.9.2-.57,6.12,1.57Z" style="fill:#CFD8DC"></path><path d="M123.69,168.27l.06,2.58,9.37,1.42-.24-5.77Zm7.85,2.12-6.28-.58,0-.6,6.26-.86Z" style="fill:#CFD8DC"></path></g></svg>